<mxfile host="65bd71144e">
    <diagram id="iuxm_iB-ZnRIiDqUhgrT" name="Page-1">
        <mxGraphModel dx="1386" dy="827" grid="1" gridSize="10" guides="1" tooltips="1" connect="1" arrows="1" fold="0" page="1" pageScale="1" pageWidth="827" pageHeight="1169" math="0" shadow="0">
            <root>
                <mxCell id="0"/>
                <mxCell id="1" parent="0"/>
                <mxCell id="6" value="Windows 10 pc" style="swimlane;startSize=20;horizontal=1;containerType=tree;" vertex="1" parent="1">
                    <mxGeometry x="140" y="10" width="670" height="500" as="geometry"/>
                </mxCell>
                <mxCell id="13" value="Python scripts" style="swimlane;startSize=20;horizontal=1;containerType=tree;" vertex="1" parent="6">
                    <mxGeometry x="30" y="160" width="220" height="280" as="geometry"/>
                </mxCell>
                <mxCell id="14" value="" style="edgeStyle=elbowEdgeStyle;elbow=vertical;sourcePerimeterSpacing=0;targetPerimeterSpacing=0;startArrow=none;endArrow=none;rounded=0;curved=0;entryX=0;entryY=0.5;entryDx=0;entryDy=0;" edge="1" parent="13" source="15" target="16">
                    <mxGeometry relative="1" as="geometry">
                        <Array as="points">
                            <mxPoint x="71" y="130"/>
                        </Array>
                    </mxGeometry>
                </mxCell>
                <mxCell id="15" value="main.py" style="whiteSpace=wrap;html=1;treeFolding=1;treeMoving=1;newEdgeStyle={&quot;edgeStyle&quot;:&quot;elbowEdgeStyle&quot;,&quot;startArrow&quot;:&quot;none&quot;,&quot;endArrow&quot;:&quot;none&quot;};" vertex="1" parent="13">
                    <mxGeometry x="11" y="35" width="120" height="40" as="geometry"/>
                </mxCell>
                <mxCell id="16" value="avgspeed.py" style="whiteSpace=wrap;html=1;treeFolding=1;treeMoving=1;newEdgeStyle={&quot;edgeStyle&quot;:&quot;elbowEdgeStyle&quot;,&quot;startArrow&quot;:&quot;none&quot;,&quot;endArrow&quot;:&quot;none&quot;};" vertex="1" parent="13">
                    <mxGeometry x="121" y="105" width="90" height="40" as="geometry"/>
                </mxCell>
                <mxCell id="17" value="racecalendar.py" style="whiteSpace=wrap;html=1;treeFolding=1;treeMoving=1;newEdgeStyle={&quot;edgeStyle&quot;:&quot;elbowEdgeStyle&quot;,&quot;startArrow&quot;:&quot;none&quot;,&quot;endArrow&quot;:&quot;none&quot;};" vertex="1" parent="13">
                    <mxGeometry x="121" y="155" width="90" height="40" as="geometry"/>
                </mxCell>
                <mxCell id="18" value="" style="edgeStyle=elbowEdgeStyle;elbow=vertical;sourcePerimeterSpacing=0;targetPerimeterSpacing=0;startArrow=none;endArrow=none;rounded=0;curved=0;entryX=0;entryY=0.5;entryDx=0;entryDy=0;" edge="1" parent="13" source="15" target="17">
                    <mxGeometry relative="1" as="geometry">
                        <mxPoint x="181" y="100" as="sourcePoint"/>
                        <mxPoint x="181" y="140" as="targetPoint"/>
                        <Array as="points">
                            <mxPoint x="71" y="175"/>
                        </Array>
                    </mxGeometry>
                </mxCell>
                <mxCell id="19" value="driverdata.py" style="whiteSpace=wrap;html=1;treeFolding=1;treeMoving=1;newEdgeStyle={&quot;edgeStyle&quot;:&quot;elbowEdgeStyle&quot;,&quot;startArrow&quot;:&quot;none&quot;,&quot;endArrow&quot;:&quot;none&quot;};" vertex="1" parent="13">
                    <mxGeometry x="121" y="205" width="90" height="40" as="geometry"/>
                </mxCell>
                <mxCell id="20" value="" style="edgeStyle=elbowEdgeStyle;elbow=vertical;sourcePerimeterSpacing=0;targetPerimeterSpacing=0;startArrow=none;endArrow=none;rounded=0;curved=0;entryX=0;entryY=0.5;entryDx=0;entryDy=0;exitX=0.5;exitY=1;exitDx=0;exitDy=0;" edge="1" parent="13" source="15" target="19">
                    <mxGeometry relative="1" as="geometry">
                        <mxPoint x="181" y="100" as="sourcePoint"/>
                        <mxPoint x="291" y="180" as="targetPoint"/>
                        <Array as="points">
                            <mxPoint x="101" y="225"/>
                        </Array>
                    </mxGeometry>
                </mxCell>
                <mxCell id="4" value="fastf1_staging" style="shape=datastore;whiteSpace=wrap;html=1;" vertex="1" parent="6">
                    <mxGeometry x="410" y="252.5" width="105" height="95" as="geometry"/>
                </mxCell>
                <mxCell id="21" value="" style="edgeStyle=none;html=1;strokeColor=none;endArrow=none;endFill=0;" edge="1" source="4" target="22" parent="6">
                    <mxGeometry relative="1" as="geometry"/>
                </mxCell>
                <mxCell id="22" value="fastf1_DWH" style="shape=datastore;whiteSpace=wrap;html=1;" vertex="1" parent="6">
                    <mxGeometry x="550" y="252.5" width="110" height="95" as="geometry"/>
                </mxCell>
                <mxCell id="28" value="Pentaho Data Integration" style="rounded=0;whiteSpace=wrap;html=1;" vertex="1" parent="6">
                    <mxGeometry x="200" y="50" width="270" height="60" as="geometry"/>
                </mxCell>
                <mxCell id="25" value="driverinfo.csv" style="shape=card;whiteSpace=wrap;html=1;" vertex="1" parent="6">
                    <mxGeometry x="280" y="140" width="100" height="100" as="geometry"/>
                </mxCell>
                <mxCell id="26" value="lap_data.csv" style="shape=card;whiteSpace=wrap;html=1;" vertex="1" parent="6">
                    <mxGeometry x="280" y="260" width="100" height="100" as="geometry"/>
                </mxCell>
                <mxCell id="27" value="racecalendar.csv" style="shape=card;whiteSpace=wrap;html=1;" vertex="1" parent="6">
                    <mxGeometry x="280" y="380" width="100" height="100" as="geometry"/>
                </mxCell>
                <mxCell id="10" value="fastf1.dev" style="swimlane;" vertex="1" parent="1">
                    <mxGeometry x="10" y="210" width="80" height="200" as="geometry"/>
                </mxCell>
                <mxCell id="11" value="API" style="shape=collate;whiteSpace=wrap;html=1;verticalAlign=bottom;" vertex="1" parent="1">
                    <mxGeometry x="50" y="280" width="80" height="80" as="geometry"/>
                </mxCell>
            </root>
        </mxGraphModel>
    </diagram>
</mxfile>